<svg width="600" height="104" viewBox="0 0 600 104" fill="none" xmlns="http://www.w3.org/2000/svg">
    <path fill="#EFEFEF" d="M0 0h600v104H0z"/>
    <mask id="a" style="mask-type:alpha" maskUnits="userSpaceOnUse" x="0" y="0" width="600" height="104">
        <path fill="#EFEFEF" d="M0 0h600v104H0z"/>
    </mask>
    <g mask="url(#a)">
        <path fill="#2D2D2D" d="M365-113.5 537.5-286 731.41-92.092l-172.5 172.5z"/>
        <path transform="rotate(-45 417 -79.201)" fill="url(#b)" d="M417-79.201h28v267.142h-28z"/>
        <path transform="rotate(-45 299 -76.201)" fill="url(#c)" d="M299-76.201h28v267.142h-28z"/>
        <path transform="rotate(-45 231 -92.201)" fill="url(#d)" d="M231-92.201h28v267.142h-28z"/>
        <path fill="#E20074" d="m369.401-88-2.402 2.402L555.897 103.3l2.402-2.402zM299.401-137l-2.402 2.402L485.897 54.3l2.402-2.402z"/>
    </g>
    <path d="M150.773 52.71v-3.628l21.834 12.99-.259 4.252-21.575-13.613z" fill="url(#e)"/>
    <path d="m199.22 49.361-26.894 16.87.216-4.164 26.678-15.89v3.184z" fill="url(#f)"/>
    <path d="m177.072 33.339-26.299 15.696 21.761 13.072 26.686-15.944-22.148-12.824z" fill="url(#g)"/>
    <path d="m177.072 33.339-16.834 8.34 15.134 10.12 13.307-11.057-11.607-7.403z" fill="url(#h)"/>
    <path d="M151.148 46.151v-3.629l21.834 12.991-.259 4.252-21.575-13.614z" fill="url(#i)"/>
    <path d="M199.595 42.802 172.701 59.67l.216-4.164 26.678-15.89v3.185z" fill="url(#j)"/>
    <path d="m177.447 26.78-26.299 15.695 21.761 13.073 26.686-15.944-22.148-12.825z" fill="url(#k)"/>
    <path d="m177.447 26.78-16.834 8.34 15.134 10.12 13.307-11.058-11.607-7.403z" fill="url(#l)"/>
    <path fill-rule="evenodd" clip-rule="evenodd" d="m177.909 22-25.122 14.811 20.785 12.356 25.367-15.056L177.909 22zm-12.732 12.354 1.866 1.398 7.849-4.531c1.138-.523 3.304-.75 4.35-.01 2.448 1.736-.664 3.532-.664 3.532l1.959 1.4s5.447-3.442.515-6.407c-2.1-1.262-6.028-.96-7.979.06l-7.896 4.558zm9.446.198 1.3-.751 3.824 2.797-1.347.778-3.777-2.824zm-2.236-.755-2.136 1.233 8.86 6.242 2.09-1.207-8.814-6.268z" fill="url(#m)"/>
    <path d="m167.043 35.752-1.866-1.4 7.896-4.557c1.951-1.02 5.879-1.322 7.979-.06 4.932 2.965-.515 6.406-.515 6.406l-1.959-1.398s3.112-1.797.664-3.532c-1.046-.741-3.212-.514-4.35.01l-7.849 4.53z" fill="#fff"/>
    <path d="m174.623 34.55 1.3-.75 3.824 2.797-1.347.778-3.777-2.825zM170.251 35.03l2.136-1.234 8.814 6.268-2.09 1.207-8.86-6.241z" fill="#fff"/>
    <path d="M152.808 40.248v-3.457l20.682 12.377-.246 4.05-20.436-12.97z" fill="url(#n)"/>
    <path d="m198.776 37.097-25.613 16.039.246-3.928 25.367-15.139v3.028z" fill="url(#o)"/>
    <path fill-rule="evenodd" clip-rule="evenodd" d="M67.832 29.18v6.054H41l5.768-6.182 21.064.128zm0 12.021v6.01h-7.094v-6.01h7.094zm0 11.978v6.053h-7.094V53.18h7.094zM92.096 29.22c2.576.028 4.822.472 6.74 1.33 1.917.86 3.506 2.004 4.765 3.435a13.73 13.73 0 0 1 2.877 4.808c.658 1.775.987 3.592.987 5.453 0 1.86-.329 3.692-.987 5.495a14.262 14.262 0 0 1-2.877 4.808c-1.259 1.402-2.848 2.533-4.765 3.391-1.918.86-4.164 1.303-6.74 1.331H74.88v-6.01h17.173c1.316-.029 2.461-.3 3.434-.816a7.648 7.648 0 0 0 2.447-2.017 8.81 8.81 0 0 0 1.46-2.877 10.92 10.92 0 0 0 .515-3.306 10.92 10.92 0 0 0-.515-3.305 7.9 7.9 0 0 0-1.503-2.877 7.29 7.29 0 0 0-2.49-2.06c-1.001-.515-2.175-.773-3.52-.773h-17v-6.01h17.215zm27.816 19.576h10.914c1.631 0 3.062-.272 4.293-.816 1.259-.572 2.289-1.316 3.091-2.232a8.907 8.907 0 0 0 1.846-3.134 10.426 10.426 0 0 0 0-7.212 8.907 8.907 0 0 0-1.846-3.134c-.802-.916-1.832-1.646-3.091-2.19-1.231-.572-2.662-.858-4.293-.858h-16.271v6.053h15.498c.601 0 1.13.114 1.588.343.458.2.83.487 1.117.859.314.343.543.744.686 1.202.144.43.215.873.215 1.33 0 .945-.3 1.804-.901 2.577-.602.773-1.503 1.159-2.705 1.159h-15.508v16.528h5.367V48.797z" fill="#000"/>
    <path d="M48.716 74.417v-1.89H41v1.89h2.834v7.424h2.048v-7.424h2.834zM57.383 81.84v-1.822h-5.056v-1.956h4.39V76.24h-4.39v-1.89h4.99v-1.822h-7.025v9.313h7.09zM65.936 79.087v-.027c0-.408-.066-.758-.2-1.051a1.979 1.979 0 0 0-.571-.758 3.17 3.17 0 0 0-.932-.56 8.567 8.567 0 0 0-1.25-.425c-.4-.106-.732-.2-.998-.28a2.97 2.97 0 0 1-.612-.252.863.863 0 0 1-.32-.293.943.943 0 0 1-.079-.399v-.026c0-.231.098-.422.293-.572.204-.16.505-.24.904-.24.4 0 .798.084 1.198.253.399.16.807.381 1.224.665l1.064-1.543a5.433 5.433 0 0 0-1.583-.878 5.512 5.512 0 0 0-1.876-.306c-.479 0-.918.066-1.317.2a3.1 3.1 0 0 0-1.038.571 2.642 2.642 0 0 0-.905 2.036v.026c0 .462.071.848.213 1.158.151.31.36.572.626.785.266.204.59.377.97.519.382.142.808.27 1.278.386.39.097.705.19.944.279.249.089.44.177.573.266.142.089.235.186.279.293.053.097.08.213.08.346v.026c0 .275-.12.492-.36.652-.23.15-.558.226-.984.226a3.55 3.55 0 0 1-1.477-.306 6.15 6.15 0 0 1-1.303-.825l-1.211 1.45c.559.506 1.18.883 1.862 1.131.683.24 1.38.36 2.09.36.505 0 .966-.063 1.383-.187.417-.133.776-.319 1.077-.558.302-.249.537-.55.706-.905.168-.364.252-.776.252-1.237zM74.765 74.417v-1.89H67.05v1.89h2.834v7.424h2.049v-7.424h2.833zM88.91 77.184v-.026c0-.657-.119-1.264-.358-1.823a4.295 4.295 0 0 0-1.025-1.477 4.558 4.558 0 0 0-1.57-.971 5.362 5.362 0 0 0-1.995-.36H80.33v9.314h3.632c.727 0 1.392-.12 1.995-.36a4.724 4.724 0 0 0 1.57-.984c.444-.417.785-.91 1.025-1.477.239-.567.359-1.18.359-1.836zm-2.141.027c0 .417-.071.794-.213 1.13-.133.338-.324.63-.572.879-.24.248-.532.439-.878.572-.346.133-.727.2-1.144.2h-1.584v-5.615h1.584c.416 0 .798.071 1.144.213a2.524 2.524 0 0 1 1.45 1.463c.142.346.213.723.213 1.131v.027zM99.81 81.84l-3.992-9.379H93.93l-3.99 9.38h2.088l.851-2.09h3.938l.852 2.09h2.142zm-3.725-3.898H93.61l1.237-3.02 1.238 3.02zM108.298 74.417v-1.89h-7.716v1.89h2.834v7.424h2.048v-7.424h2.834zM118.947 81.84l-3.991-9.379h-1.889l-3.991 9.38h2.088l.852-2.09h3.938l.851 2.09h2.142zm-3.725-3.898h-2.475l1.238-3.02 1.237 3.02zM131.743 75.774v-.027c0-.479-.084-.913-.252-1.303-.16-.4-.395-.741-.706-1.025a3.022 3.022 0 0 0-1.117-.652c-.435-.16-.931-.24-1.49-.24h-3.805v9.314h2.049v-2.794h1.556a5.17 5.17 0 0 0 1.464-.2c.461-.142.86-.35 1.197-.625.346-.275.616-.616.812-1.024.195-.408.292-.883.292-1.424zm-2.075.04c0 .399-.142.736-.426 1.011-.284.266-.683.4-1.197.4h-1.623v-2.848h1.583c.514 0 .918.12 1.211.36.301.239.452.59.452 1.05v.027zM139.951 81.84v-1.862h-4.643v-7.45h-2.048v9.313h6.691zM150.57 81.84l-3.991-9.379h-1.89l-3.991 9.38h2.089l.851-2.09h3.938l.852 2.09h2.142zm-3.725-3.898h-2.475l1.237-3.02 1.238 3.02zM159.058 74.417v-1.89h-7.716v1.89h2.834v7.424h2.048v-7.424h2.834zM167.725 74.39v-1.862h-7.091v9.313h2.049v-3.606h4.443v-1.862h-4.443V74.39h5.042zM178.85 77.184v-.026c0-.666-.124-1.287-.372-1.863a4.37 4.37 0 0 0-1.025-1.517 4.7 4.7 0 0 0-1.556-1.024 5 5 0 0 0-1.982-.386c-.719 0-1.384.129-1.996.386a4.76 4.76 0 0 0-1.57 1.038 4.767 4.767 0 0 0-1.024 1.53 4.646 4.646 0 0 0-.373 1.862v.027c0 .665.12 1.29.359 1.876.249.576.59 1.082 1.025 1.516.443.426.967.768 1.57 1.025a5.157 5.157 0 0 0 1.982.372c.718 0 1.379-.124 1.982-.372a4.851 4.851 0 0 0 1.57-1.038 4.872 4.872 0 0 0 1.038-1.53c.248-.585.372-1.21.372-1.876zm-2.142.027c0 .399-.071.776-.213 1.13a2.799 2.799 0 0 1-.572.919 2.512 2.512 0 0 1-.878.625c-.346.15-.722.226-1.13.226-.417 0-.799-.075-1.145-.226a3.035 3.035 0 0 1-.891-.639 2.97 2.97 0 0 1-.585-.931 3.195 3.195 0 0 1-.2-1.13v-.027c0-.4.067-.772.2-1.118.142-.355.332-.665.572-.931.248-.266.541-.475.878-.625.346-.151.727-.227 1.144-.227.408 0 .785.08 1.131.24.346.15.643.359.891.625.257.266.452.577.585.931.142.355.213.732.213 1.131v.027zM188.717 81.84l-2.275-3.325a3.172 3.172 0 0 0 1.436-1.038c.373-.48.559-1.096.559-1.85v-.026c0-.967-.31-1.72-.931-2.262-.612-.54-1.472-.811-2.581-.811h-4.257v9.313h2.049v-2.98h1.609l1.996 2.98h2.395zm-2.355-6.106c0 .4-.138.719-.413.958-.266.24-.652.36-1.157.36h-2.075v-2.675h2.035c.506 0 .9.11 1.184.333.284.221.426.554.426.997v.027zM199.595 81.84v-9.312h-2.209l-2.448 3.938-2.448-3.938h-2.208v9.313h2.009V75.8l2.594 3.938h.053l2.621-3.978v6.08h2.036z" fill="#000"/>
    <defs>
        <linearGradient id="b" x1="429.232" y1="8.269" x2="429.232" y2="250.806" gradientUnits="userSpaceOnUse">
            <stop stop-color="#E20074"/>
            <stop offset="1" stop-color="#FA982F"/>
        </linearGradient>
        <linearGradient id="c" x1="313" y1="-76.201" x2="313" y2="168.6" gradientUnits="userSpaceOnUse">
            <stop stop-color="#C4C4C4"/>
            <stop offset="1" stop-color="#C4C4C4" stop-opacity="0"/>
        </linearGradient>
        <linearGradient id="d" x1="245" y1="-92.201" x2="245" y2="152.6" gradientUnits="userSpaceOnUse">
            <stop stop-color="#C4C4C4"/>
            <stop offset="1" stop-color="#C4C4C4" stop-opacity="0"/>
        </linearGradient>
        <linearGradient id="e" x1="168.94" y1="50.206" x2="150.108" y2="52.905" gradientUnits="userSpaceOnUse">
            <stop stop-color="#E20074"/>
            <stop offset="1" stop-color="#FA982F"/>
        </linearGradient>
        <linearGradient id="f" x1="194.703" y1="47.484" x2="171.563" y2="50.996" gradientUnits="userSpaceOnUse">
            <stop stop-color="#E20074"/>
            <stop offset="1" stop-color="#FA982F"/>
        </linearGradient>
        <linearGradient id="g" x1="191.083" y1="35.215" x2="149.933" y2="43.057" gradientUnits="userSpaceOnUse">
            <stop stop-color="#E20074"/>
            <stop offset="1" stop-color="#FA982F"/>
        </linearGradient>
        <linearGradient id="h" x1="183.901" y1="34.543" x2="159.606" y2="38.778" gradientUnits="userSpaceOnUse">
            <stop stop-color="#E20074"/>
            <stop offset="1" stop-color="#FA982F"/>
        </linearGradient>
        <linearGradient id="i" x1="169.315" y1="43.647" x2="150.483" y2="46.345" gradientUnits="userSpaceOnUse">
            <stop stop-color="#E20074"/>
            <stop offset="1" stop-color="#FA982F"/>
        </linearGradient>
        <linearGradient id="j" x1="195.078" y1="40.925" x2="171.938" y2="44.437" gradientUnits="userSpaceOnUse">
            <stop stop-color="#E20074"/>
            <stop offset="1" stop-color="#FA982F"/>
        </linearGradient>
        <linearGradient id="k" x1="191.458" y1="28.655" x2="150.308" y2="36.497" gradientUnits="userSpaceOnUse">
            <stop stop-color="#E20074"/>
            <stop offset="1" stop-color="#FA982F"/>
        </linearGradient>
        <linearGradient id="l" x1="184.276" y1="27.983" x2="159.981" y2="32.219" gradientUnits="userSpaceOnUse">
            <stop stop-color="#E20074"/>
            <stop offset="1" stop-color="#FA982F"/>
        </linearGradient>
        <linearGradient id="m" x1="191.187" y1="23.772" x2="152.011" y2="31.303" gradientUnits="userSpaceOnUse">
            <stop stop-color="#E20074"/>
            <stop offset="1" stop-color="#FA982F"/>
        </linearGradient>
        <linearGradient id="n" x1="170.016" y1="37.862" x2="152.173" y2="40.404" gradientUnits="userSpaceOnUse">
            <stop stop-color="#E20074"/>
            <stop offset="1" stop-color="#FA982F"/>
        </linearGradient>
        <linearGradient id="o" x1="194.474" y1="35.313" x2="172.438" y2="38.662" gradientUnits="userSpaceOnUse">
            <stop stop-color="#E20074"/>
            <stop offset="1" stop-color="#FA982F"/>
        </linearGradient>
    </defs>
</svg>
