<svg width="16" height="16" viewBox="0 0 16 16" fill="none" xmlns="http://www.w3.org/2000/svg">
    <circle cx="8" cy="8" r="8" fill="url(#a)"/>
    <path fill-rule="evenodd" clip-rule="evenodd" d="M8 3.707a4.293 4.293 0 1 0 0 8.586 4.293 4.293 0 0 0 0-8.586zM3.333 8a4.667 4.667 0 1 1 9.333 0 4.667 4.667 0 0 1-9.333 0z" fill="#fff" stroke="#fff" stroke-width=".5" stroke-linecap="round" stroke-linejoin="round"/>
    <path fill-rule="evenodd" clip-rule="evenodd" d="M3.333 8c0-.103.084-.187.187-.187h8.96a.187.187 0 0 1 0 .374H3.52A.187.187 0 0 1 3.333 8z" fill="#fff" stroke="#fff" stroke-width=".5" stroke-linecap="round" stroke-linejoin="round"/>
    <path fill-rule="evenodd" clip-rule="evenodd" d="M6.395 8A6.668 6.668 0 0 0 8 12.198 6.668 6.668 0 0 0 9.605 8 6.668 6.668 0 0 0 8 3.802 6.668 6.668 0 0 0 6.395 8zM8 3.52l-.138-.126a7.041 7.041 0 0 0-1.84 4.61 7.041 7.041 0 0 0 1.84 4.602.187.187 0 0 0 .276 0 7.041 7.041 0 0 0 1.84-4.61 7.041 7.041 0 0 0-1.84-4.602L8 3.52z" fill="#fff" stroke="#fff" stroke-width=".5" stroke-linecap="round" stroke-linejoin="round"/>
    <defs>
        <linearGradient id="a" x1="-3.024" y1="7.975" x2="17.74" y2="7.566" gradientUnits="userSpaceOnUse">
            <stop stop-color="#E20074"/>
            <stop offset="1" stop-color="#F0594B"/>
            <stop offset="1" stop-color="#FA982F"/>
        </linearGradient>
    </defs>
</svg>
