<svg width="600" height="36" viewBox="0 0 600 36" fill="none" xmlns="http://www.w3.org/2000/svg">
    <path fill="#EFEFEF" d="M332 0h268v35.999H332z"/>
    <path fill="url(#a)" d="M0 0h252v35.999H0z"/>
    <path d="M280 36h32.154L332 0h-32.154L280 36z" fill="#2D2D2D"/>
    <path d="M300.129 0h32.154l19.846 36h-32.155L300.129 0z" fill="url(#b)"/>
    <path d="M239.871 36h32.155l19.845-36h-32.154l-19.846 36z" fill="#2D2D2D"/>
    <path d="M260 0h32.154L312 36h-32.154L260 0z" fill="url(#c)"/>
    <path d="M199.613 36h32.155l19.845-36h-32.154l-19.846 36z" fill="#2D2D2D"/>
    <path d="M219.742 0h32.155l19.845 36h-32.154L219.742 0z" fill="url(#d)"/>
    <path d="M159.354 36h32.155l19.845-36H179.2l-19.846 36z" fill="#2D2D2D"/>
    <path d="M179.483 0h32.155l19.845 36h-32.154L179.483 0z" fill="url(#e)"/>
    <path d="M0 36h191L169.852 0H0v36z" fill="url(#f)"/>
    <path d="M528.357 6.106c-.353.153-.706.56-.814.943-.246.89.443 1.787 1.363 1.787.238 0 .33.03.36.13.13.46.657 2.469.657 2.523 0 .038-.161.153-.353.253-.476.253-.983.843-1.19 1.372-.169.452-.232 1.25-.125 1.641.054.207.038.222-.828.652l-.875.437-.215-.2c-.796-.743-2.032.17-1.611 1.189.306.728 1.402.797 1.817.107.085-.138.154-.383.154-.567v-.315l.821-.437.829-.437.115.177c.329.513.612.82.934 1.027.199.123.36.253.36.284.008.038-1.49 2.645-1.567 2.73-.015.015-.215-.016-.445-.062-.766-.176-1.618.238-1.964.943-.207.422-.216 1.12-.017 1.557.299.652 1.103 1.096 1.809 1.004.928-.13 1.565-.858 1.574-1.786 0-.445-.283-1.089-.582-1.327-.099-.076-.184-.168-.184-.199 0-.03.354-.675.792-1.426l.783-1.373.269.062c.49.1 1.326.053 1.687-.092a2.886 2.886 0 0 0 1.658-1.764l.123-.353h.759c.759 0 .767 0 .843.207.245.644.927 1.097 1.663 1.097 1.012 0 1.734-.729 1.742-1.771.001-.43-.03-.56-.229-.874-.336-.545-.743-.806-1.325-.86-.897-.084-1.657.422-1.903 1.258l-.123.414-.698-.023-.69-.023-.107-.444a2.689 2.689 0 0 0-.558-1.204l-.215-.269.853-1.058.844-1.05.353.046c.452.053.736-.054.928-.368.277-.453.139-1.02-.305-1.25-.759-.391-1.573.322-1.259 1.112l.122.299-.829 1.02c-.453.56-.837 1.035-.852 1.05-.008.015-.253-.084-.537-.23-.483-.245-.559-.26-1.265-.26-.414 0-.751-.008-.751-.016s-.153-.59-.344-1.296l-.336-1.288.307-.26c.4-.338.53-.614.531-1.082 0-.468-.099-.744-.367-1.027-.391-.414-1.073-.553-1.587-.33z" fill="#E20074"/>
    <path d="M524.3 7.249c-.146.146-.192.314-.278.981-.054.438-.116.936-.146 1.105l-.054.306-.722.276c-.398.154-.874.345-1.05.437-.177.092-.353.17-.392.17-.038 0-.421-.277-.85-.614-.429-.345-.858-.652-.958-.683-.352-.138-.552 0-1.726 1.173-1.497 1.496-1.474 1.419-.655 2.492.337.43.651.844.705.92.084.123.053.238-.216.783-.169.352-.369.82-.431 1.042-.061.215-.153.43-.207.468-.054.038-.506.107-1.012.161-1.618.169-1.588.123-1.56 2.385.029 2.055-.063 1.932 1.509 2.124l1.104.138.168.498c.091.276.29.775.451 1.104.161.36.252.637.214.69-.039.046-.33.422-.66.829-.615.782-.738 1.073-.585 1.372.054.1.613.69 1.233 1.311 1.44 1.434 1.333 1.419 2.576.445l.883-.69.467.245c.261.13.751.338 1.088.453l.614.207.091.636c.046.353.106.851.137 1.096.038.353.099.507.267.675l.215.215h1.694c2.178 0 2.04.092 2.241-1.45.077-.605.17-1.126.201-1.157.03-.03.253-.115.483-.184.23-.077.675-.253.989-.399.315-.146.606-.26.66-.26.054 0 .475.29.927.651 1.18.92 1.065.951 2.569-.552 1.252-1.234 1.398-1.449 1.214-1.802-.046-.1-.337-.49-.636-.866a19.285 19.285 0 0 1-.612-.79c-.038-.069.016-.268.146-.529a9.89 9.89 0 0 0 .454-1.081l.238-.667 1.051-.13c1.096-.139 1.311-.2 1.434-.438.092-.16.132-1.755.048-1.832-.053-.054-5.053-.085-5.421-.03-.184.03-.215.068-.253.39-.109.882-.293 1.541-.624 2.216-.292.606-.461.844-1.013 1.396-1.121 1.127-2.264 1.656-3.729 1.74-2.921.169-5.442-1.794-5.983-4.662-.259-1.403-.012-2.752.74-4.04.354-.591 1.375-1.603 1.988-1.956.607-.353 1.542-.66 2.179-.713.261-.023.544-.054.644-.077l.169-.03-.012-2.822-.02-2.814-.905-.023c-.859-.023-.905-.015-1.081.161zM570.479 8.529c-.798.422-.983 1.38-.409 2.07.138.161.383.284.912.46.391.13.759.292.82.36.169.208.122.706-.085.875-.276.222-.882.199-1.119-.046-.108-.1-.192-.238-.192-.307 0-.084-.092-.115-.391-.115-.368 0-.391.008-.345.169.023.1.046.214.046.268 0 .161.482.652.75.767.315.13 1.043.146 1.358.023.529-.2.805-.637.806-1.273.001-.72-.336-1.104-1.195-1.357-.766-.223-.95-.376-.95-.79.001-.66 1.144-.774 1.381-.138.061.153.122.184.421.184.376 0 .407-.054.261-.437-.107-.291-.436-.636-.735-.76-.352-.153-1.004-.13-1.334.047zM541.732 10.752l-.003 2.3h2.608v-.689H542.42l.001-.652.001-.652h1.84v-.345l.001-.345h-1.84v-.613l.001-.614H544.341v-.345l.001-.345h-2.607l-.003 2.3zM545.181 10.752l-.002 2.3h.69l.002-1.633c.009-1.433.017-1.61.116-1.48.062.085.498.813.972 1.634l.865 1.48h.805l.003-2.3.002-2.3h-.767l-.017 1.625-.024 1.633-.957-1.633-.949-1.626h-.736l-.003 2.3zM549.246 8.797v.345h1.226l-.002 1.956-.002 1.955h.767l.002-1.956.002-1.955H552.466v-.345l.001-.345h-3.221v.345zM553.078 10.752l-.003 2.3h2.692l-.023-.329-.023-.322-.935-.023-.943-.023v-.644l.001-.652h1.84l.001-.345v-.345h-1.84l.001-.613v-.614H555.763l.001-.345v-.345h-2.684l-.002 2.3zM556.605 10.752l-.002 2.3h.69l.001-.889.001-.882.322.024.314.023.467.843.474.843.399.023c.222.016.399.008.399-.023 0-.023-.222-.429-.498-.897l-.497-.859.215-.107c.521-.268.782-.69.783-1.273.001-.62-.252-1.027-.804-1.28-.245-.115-.498-.146-1.28-.146h-.981l-.003 2.3zm1.942-1.518c.26.138.352.307.352.637-.001.544-.269.728-1.059.728h-.545l.001-.728.001-.729h.544c.299 0 .614.039.706.092zM560.441 10.752l-.003 2.3h.767l.001-.797.001-.79.682-.038c1.074-.061 1.573-.437 1.666-1.265.093-.767-.298-1.45-.926-1.626-.169-.046-.729-.084-1.242-.084h-.943l-.003 2.3zm2.156-1.387c.161.168.222.299.222.506-.001.628-.338.881-1.159.881h-.452l.001-.805.001-.805h.582c.537 0 .598.016.805.223zM564.272 10.752l-.002 2.3h.69l.001-.881.001-.882h.329l.322.008.482.874.483.882h.828l-.521-.897-.52-.898.291-.145c.369-.177.576-.46.676-.905.17-.736-.236-1.495-.888-1.672-.16-.046-.713-.084-1.226-.084h-.943l-.003 2.3zm2.064-1.48c.337.284.329.967-.009 1.212-.122.077-.353.115-.767.115h-.598l.001-.728.001-.729h.606c.46 0 .644.03.766.13zM568.182 10.752l-.002 2.3h.69l.002-2.3.003-2.3h-.69l-.003 2.3zM573.474 10.752l-.002 2.3h2.607v-.689h-1.84l.001-.652.001-.652h1.84l-.015-.345-.007-.345h-1.818l.001-.613.001-.614h1.84v-.345l.001-.345h-2.607l-.003 2.3zM549.5 14.932c-.713.376-1.021 1.012-1.03 2.155-.001 1.587.642 2.43 1.876 2.423.851-.008 1.419-.437 1.658-1.258l.062-.214h-.422c-.33 0-.414.023-.414.122 0 .07-.123.246-.269.391-.261.26-.292.269-.691.238-.782-.07-1.072-.575-1.017-1.802.023-.629.062-.805.208-1.05.43-.69 1.442-.644 1.74.069.107.253.13.268.483.268h.376l-.077-.291c-.274-1.043-1.485-1.557-2.483-1.05zM562.598 14.825c-.368.115-.89.659-1.044 1.111-.277.805-.232 1.979.104 2.638.176.337.582.728.881.843.284.115 1.158.123 1.434.016.353-.146.806-.614.983-1.028.353-.82.278-2.17-.158-2.86-.337-.529-.728-.743-1.395-.774-.306-.015-.667.008-.805.054zm1.418.95c.612.713.48 2.554-.218 2.914-.115.061-.376.115-.576.115-.306 0-.391-.038-.643-.291-.353-.353-.505-.943-.428-1.695.085-.935.538-1.434 1.236-1.365.322.031.414.077.629.322zM569.826 14.878c-.675.322-1.036.982-1.098 2.01-.094 1.655.603 2.63 1.891 2.63.851 0 1.465-.446 1.749-1.29.154-.452.179-1.594.041-2.085-.137-.475-.543-1.027-.896-1.204-.436-.222-1.28-.253-1.687-.06zm1.326.706c.391.237.582.736.581 1.533-.001.79-.108 1.143-.461 1.457a1.014 1.014 0 0 1-1.572-.33c-.344-.66-.258-1.955.148-2.446a.989.989 0 0 1 1.304-.214zM574.167 14.94c-.706.352-1.028 1.035-1.037 2.177-.002 1.564.672 2.392 1.945 2.4.743 0 1.25-.299 1.565-.928.146-.283.3-1.403.208-1.495-.03-.03-.421-.046-.858-.038l-.798.023-.023.322-.023.33h.989l-.062.268c-.131.583-.415.805-1.021.805-.759 0-1.157-.583-1.156-1.687.002-1.073.324-1.587 1.053-1.664.406-.046.782.123.958.445.114.192.168.222.498.222.422 0 .445-.069.207-.536-.405-.79-1.547-1.09-2.445-.644zM541.344 15.161l-.001.346H542.57l-.002 1.955-.002 1.955h.345c.306 0 .345-.023.345-.176 0-.092.016-.966.025-1.933l.017-1.763.637-.023.629-.023v-.683h-3.22v.345zM545.174 17.117l-.002 2.3h2.691l-.022-.33-.023-.322-.935-.023-.944-.023.001-.644.001-.652h1.84v-.345l.001-.345h-1.84v-.613l.001-.614H547.86v-.345l.001-.345h-2.684l-.003 2.3zM552.765 17.117l-.002 2.3h.69l.001-.997.001-.997H555.372l-.001.997-.001.997h.766l.003-2.3.003-2.3h-.767l-.001.958-.001.958H553.456l.001-.958.001-.959h-.69l-.003 2.3zM557.135 17.117l-.002 2.3h.69l.017-1.633.025-1.626.949 1.626.956 1.633h.737l.002-2.3.003-2.3h-.69l-.002 1.625c-.009 1.434-.017 1.618-.117 1.488-.061-.077-.497-.813-.972-1.626l-.865-1.488h-.728l-.003 2.3zM565.953 17.117l-.003 2.3H568.481v-.69h-1.763l.002-1.955.002-1.956h-.767l-.002 2.3zM577.09 14.878c.015.03.344.629.735 1.326l.704 1.273-.001.974-.002.966h.767l.001-.966.001-.966.73-1.296c.4-.713.73-1.311.73-1.334 0-.023-.184-.039-.414-.039h-.406l-.484.92c-.269.507-.507.92-.53.92-.023 0-.261-.413-.529-.92l-.482-.92h-.429c-.23 0-.406.031-.391.062zM542.57 21.104c-.606.145-1.005.66-1.006 1.296 0 .736.283 1.042 1.241 1.357.659.222.904.421.904.766 0 .384-.215.583-.675.63-.361.03-.415.015-.629-.2-.123-.13-.23-.291-.23-.353 0-.092-.084-.123-.383-.123-.383 0-.383 0-.337.207.175.721.596 1.09 1.325 1.15.782.07 1.342-.237 1.58-.858.323-.836-.128-1.557-1.178-1.871-.882-.268-1.142-.667-.743-1.135.154-.176.246-.214.545-.214.299 0 .391.038.544.214.099.115.184.268.183.33 0 .076.1.107.353.107h.36l-.045-.276c-.054-.33-.36-.759-.651-.905-.276-.138-.836-.199-1.158-.122zM546.481 21.097c-.445.115-.867.475-1.113.943-.299.59-.37 1.649-.163 2.415.328 1.204 1.531 1.749 2.636 1.204.69-.345 1.013-1.027 1.03-2.14.009-1.494-.588-2.345-1.723-2.445a2.63 2.63 0 0 0-.667.023zm1.126.89c.345.29.498.736.497 1.495-.001 1.142-.362 1.648-1.16 1.648-.375 0-.437-.023-.666-.284-.307-.337-.421-.697-.421-1.372.001-.683.178-1.235.47-1.48.33-.284.951-.284 1.28-.008zM563.227 21.136c-.483.138-.967.636-1.159 1.219-.169.475-.193 1.618-.048 2.1.145.476.551 1.028.888 1.205.168.084.498.168.736.184 1.234.092 1.971-.668 2.057-2.132.063-1.173-.32-2.116-.994-2.438a2.196 2.196 0 0 0-1.48-.138zm1.111.774c.13.07.307.26.398.445.245.452.252 1.702.021 2.154-.215.43-.507.622-.951.622-.744 0-1.104-.537-1.11-1.65 0-.789.108-1.142.461-1.456.215-.184.338-.23.614-.23.192 0 .445.054.567.115zM571.737 21.143c-.637.23-1.051.959-.883 1.564.145.56.551.89 1.34 1.09.475.122.805.398.805.682-.001.322-.07.452-.315.575-.361.192-.737.146-.997-.107-.123-.123-.222-.284-.222-.345 0-.1-.084-.123-.391-.123-.391 0-.391 0-.338.207.176.72.597 1.089 1.326 1.15.789.069 1.349-.23 1.588-.859.323-.836-.137-1.564-1.179-1.878-.866-.253-1.134-.637-.773-1.097.322-.414 1.074-.299 1.249.184.077.2.123.223.414.223.276 0 .33-.023.33-.146.001-.384-.306-.844-.697-1.043-.321-.169-.912-.207-1.257-.077zM549.691 23.481l-.003 2.3H552.219v-.344l.001-.345H550.379l.003-1.956.002-1.955h-.69l-.003 2.3zM552.621 22.96c.021 1.649.036 1.81.181 2.093.307.568.736.798 1.495.805.644 0 1.15-.276 1.404-.79.2-.383.2-.413.202-2.139l.002-1.748h-.691l-.009 1.549c-.01 1.825-.064 2.109-.455 2.308-.376.192-.874.138-1.142-.13l-.199-.2-.021-1.763-.021-1.764h-.775l.029 1.779zM556.516 21.488v.306l.483.008c.261.008.537.008.614 0 .122-.015.13.123.128 1.979l-.002 2h.766l.003-1.993.002-1.994H559.737v-.613h-3.22l-.001.307zM560.349 23.481l-.002 2.3h.766l.003-2.3.003-2.3h-.767l-.003 2.3zM566.483 23.481l-.003 2.3h.767l.017-1.625.025-1.625.957 1.625.957 1.626h.728l.002-2.3.003-2.3h-.69l-.002 1.625c-.009 1.48-.017 1.618-.124 1.48-.061-.085-.498-.82-.972-1.626l-.857-1.48h-.805l-.003 2.3z" fill="#E20074"/>
    <defs>
        <linearGradient id="a" x1="0" y1="35.999" x2="252" y2="35.999" gradientUnits="userSpaceOnUse">
            <stop stop-color="#D5D5D5"/>
            <stop offset=".482" stop-color="#CBCBCB" stop-opacity="0"/>
            <stop offset="1" stop-color="#CBCBCB"/>
        </linearGradient>
        <linearGradient id="b" x1="310.245" y1="17.944" x2="355.96" y2="17.063" gradientUnits="userSpaceOnUse">
            <stop stop-color="#E20074"/>
            <stop offset="1" stop-color="#F0594B"/>
            <stop offset="1" stop-color="#FA982F"/>
        </linearGradient>
        <linearGradient id="c" x1="270.116" y1="17.944" x2="315.831" y2="17.063" gradientUnits="userSpaceOnUse">
            <stop stop-color="#E20074"/>
            <stop offset="1" stop-color="#F0594B"/>
            <stop offset="1" stop-color="#FA982F"/>
        </linearGradient>
        <linearGradient id="d" x1="229.859" y1="17.944" x2="275.573" y2="17.063" gradientUnits="userSpaceOnUse">
            <stop stop-color="#E20074"/>
            <stop offset="1" stop-color="#F0594B"/>
            <stop offset="1" stop-color="#FA982F"/>
        </linearGradient>
        <linearGradient id="e" x1="189.6" y1="17.944" x2="235.314" y2="17.063" gradientUnits="userSpaceOnUse">
            <stop stop-color="#E20074"/>
            <stop offset="1" stop-color="#F0594B"/>
            <stop offset="1" stop-color="#FA982F"/>
        </linearGradient>
        <linearGradient id="f" x1="-32.102" y1="90.279" x2="188.329" y2="94.374" gradientUnits="userSpaceOnUse">
            <stop stop-color="#E20074"/>
            <stop offset="1" stop-color="#F0594B"/>
        </linearGradient>
    </defs>
</svg>
