<svg width="16" height="16" viewBox="0 0 16 16" fill="none" xmlns="http://www.w3.org/2000/svg">
    <circle cx="8" cy="8" r="8" fill="url(#a)"/>
    <path fill-rule="evenodd" clip-rule="evenodd" d="M8.686 4.114a.456.456 0 1 1 .914 0V6.4a.456.456 0 1 1-.914 0V4.114zm.457-.914a.913.913 0 0 0-.914.914V6.4a.913.913 0 1 0 1.828 0V4.114a.913.913 0 0 0-.914-.914zm2.286 3.2a.456.456 0 1 1 .914 0 .456.456 0 0 1-.457.457h-.457V6.4zm.457-.914a.913.913 0 0 0-.914.914v.686c0 .126.102.228.228.228h.686a.913.913 0 1 0 0-1.828zM6.857 9.143A.456.456 0 0 0 6.4 9.6v2.286a.456.456 0 1 0 .914 0V9.6a.456.456 0 0 0-.457-.457zm-.914.457a.913.913 0 1 1 1.829 0v2.286a.913.913 0 1 1-1.829 0V9.6zm-2.286 0c0-.253.204-.457.457-.457h.458V9.6a.456.456 0 1 1-.915 0zm.457-.914a.913.913 0 1 0 0 1.829.913.913 0 0 0 .915-.915v-.686a.229.229 0 0 0-.229-.228h-.686zm5.486 0a.456.456 0 1 0 0 .914h2.286a.456.456 0 1 0 0-.914H9.6zm-.914.457c0-.506.409-.914.914-.914h2.286a.913.913 0 1 1 0 1.828H9.6a.913.913 0 0 1-.914-.914zm.228 1.829a.229.229 0 0 0-.228.228v.686a.913.913 0 1 0 1.829 0 .913.913 0 0 0-.915-.914h-.686zm.23.914v-.457H9.6a.456.456 0 1 1 0 .914.456.456 0 0 1-.457-.457zM3.2 6.857c0-.505.409-.914.914-.914H6.4a.913.913 0 1 1 0 1.829H4.114a.913.913 0 0 1-.914-.915zm.914-.457a.456.456 0 1 0 0 .914H6.4a.456.456 0 1 0 0-.914H4.114zM6.4 3.2a.913.913 0 1 0 0 1.829h.686a.229.229 0 0 0 .228-.229v-.686A.913.913 0 0 0 6.4 3.2zm-.457.914a.456.456 0 1 1 .914 0v.458H6.4a.456.456 0 0 1-.457-.458z" fill="#fff" stroke="#fff" stroke-width=".3" stroke-linecap="round" stroke-linejoin="round"/>
    <defs>
        <linearGradient id="a" x1="-3.024" y1="7.975" x2="17.74" y2="7.566" gradientUnits="userSpaceOnUse">
            <stop stop-color="#E20074"/>
            <stop offset="1" stop-color="#F0594B"/>
            <stop offset="1" stop-color="#FA982F"/>
        </linearGradient>
    </defs>
</svg>
